<svg xmlns="http://www.w3.org/2000/svg" viewBox="0 0 64 64" width="64" height="64">
  <defs>
    <linearGradient id="offBg" x1="0%" y1="0%" x2="100%" y2="100%">
      <stop offset="0%" stop-color="#0f172a"/>
      <stop offset="100%" stop-color="#0369a1"/>
    </linearGradient>
  </defs>
  <rect x="2" y="2" width="60" height="60" rx="16" fill="url(#offBg)" stroke="#38bdf8" stroke-width="2"/>
  <!-- Office Highrise Silhouette -->
  <rect x="14" y="22" width="16" height="28" rx="2" fill="#1e293b" stroke="#38bdf8" stroke-width="1.8"/>
  <rect x="28" y="14" width="22" height="36" rx="2" fill="#0f172a" stroke="#38bdf8" stroke-width="1.8"/>
  <!-- Illuminated Desk Windows -->
  <rect x="18" y="26" width="3" height="3" fill="#38bdf8"/>
  <rect x="23" y="26" width="3" height="3" fill="#fbbf24"/>
  <rect x="18" y="32" width="3" height="3" fill="#38bdf8"/>
  <rect x="23" y="32" width="3" height="3" fill="#38bdf8"/>
  <rect x="33" y="19" width="4" height="4" fill="#38bdf8"/>
  <rect x="41" y="19" width="4" height="4" fill="#38bdf8"/>
  <rect x="33" y="26" width="4" height="4" fill="#fbbf24"/>
  <rect x="41" y="26" width="4" height="4" fill="#38bdf8"/>
  <rect x="33" y="33" width="4" height="4" fill="#38bdf8"/>
  <rect x="41" y="33" width="4" height="4" fill="#fbbf24"/>
  <!-- Hybrid Smart Desk Active Beacon -->
  <circle cx="43" cy="43" r="3.5" fill="#10b981"/>
</svg>
