<svg xmlns="http://www.w3.org/2000/svg" viewBox="0 0 48 48" fill="none">
    <rect width="48" height="48" rx="12" fill="#1e293b"/>
    <path d="M23.5 12C18.2 12 18.5 14.3 18.5 14.3L18.5 16.5H23.7V17.3H16.2C13.9 17.3 12 19.1 12 21.8C12 24.5 13.9 25.8 16.2 25.8H18.1V23.6C18.1 21 20.3 18.8 22.9 18.8H28.2C29.6 18.8 30.7 17.7 30.7 16.3V14.3C30.7 13 28.8 12 23.5 12ZM21 14.2C21.6 14.2 22 14.6 22 15.2C22 15.8 21.6 16.2 21 16.2C20.4 16.2 20 15.8 20 15.2C20 14.6 20.4 14.2 21 14.2Z" fill="#38bdf8"/>
    <path d="M24.5 36C29.8 36 29.5 33.7 29.5 33.7L29.5 31.5H24.3V30.7H31.8C34.1 30.7 36 28.9 36 26.2C36 23.5 34.1 22.2 31.8 22.2H29.9V24.4C29.9 27 27.7 29.2 25.1 29.2H19.8C18.4 29.2 17.3 30.3 17.3 31.7V33.7C17.3 35 19.2 36 24.5 36ZM27 33.8C26.4 33.8 26 33.4 26 32.8C26 32.2 26.4 31.8 27 31.8C27.6 31.8 28 32.2 28 32.8C28 33.4 27.6 33.8 27 33.8Z" fill="#facc15"/>
  </svg>